<?xml version="1.0" standalone="no"?>
<!DOCTYPE svg PUBLIC "-//W3C//DTD SVG 20010904//EN"
 "http://www.w3.org/TR/2001/REC-SVG-20010904/DTD/svg10.dtd">
<svg version="1.0" xmlns="http://www.w3.org/2000/svg"
 width="260.000000pt" height="260.000000pt" viewBox="0 0 260.000000 260.000000"
 preserveAspectRatio="xMidYMid meet">
<metadata>
Created by potrace 1.11, written by Peter Selinger 2001-2013
</metadata>
<g transform="translate(0.000000,260.000000) scale(0.100000,-0.100000)"
fill="#000000" stroke="none">
<path d="M282 1671 c-67 -23 -120 -66 -152 -122 -32 -57 -34 -152 -3 -220 68
-152 271 -252 443 -218 239 47 294 298 101 470 -104 93 -268 131 -389 90z
m289 -35 c138 -70 187 -223 101 -320 -47 -53 -156 -70 -248 -39 -68 23 -146
102 -163 165 -47 168 135 281 310 194z"/>
<path d="M415 1626 c-114 -51 -97 -197 29 -263 43 -22 134 -21 169 2 117 77
37 256 -120 271 -29 2 -60 -1 -78 -10z"/>
<path d="M1132 1571 c-23 -65 -42 -125 -42 -133 0 -10 11 -15 35 -15 27 0 35
4 35 18 0 23 6 26 60 30 40 3 46 1 57 -23 11 -21 19 -25 45 -24 39 3 40 -6
-14 149 l-41 117 -46 0 -46 0 -43 -119z m118 -37 c0 -6 -13 -10 -30 -10 -35 0
-35 -3 -14 67 l17 54 13 -50 c7 -27 13 -55 14 -61z"/>
<path d="M1820 1557 l0 -132 35 -1 c19 0 36 4 36 10 1 6 2 66 3 134 l1 122
-37 0 -38 0 0 -133z"/>
<path d="M2387 1568 c1 -68 2 -128 2 -134 1 -5 16 -10 34 -10 31 1 32 2 32 48
0 51 6 50 39 -8 18 -31 27 -37 59 -40 20 -1 37 2 37 8 0 5 -13 29 -30 53 l-30
43 24 15 c47 31 41 112 -10 136 -14 6 -55 11 -92 11 l-67 0 2 -122z m126 41
c3 -12 -2 -24 -15 -33 -27 -19 -44 -11 -43 22 0 43 47 52 58 11z"/>
<path d="M1536 1594 c-22 -22 -20 -60 5 -78 35 -24 91 8 82 47 -11 44 -58 61
-87 31z"/>
<path d="M2099 1589 c-11 -11 -18 -27 -15 -36 3 -8 6 -18 6 -22 0 -4 12 -13
26 -20 54 -24 100 43 56 82 -25 23 -48 21 -73 -4z"/>
<path d="M90 1558 c-12 -13 -35 -50 -51 -84 -58 -118 -47 -268 28 -381 136
-205 444 -230 611 -49 45 49 67 81 77 114 6 20 1 18 -32 -14 -21 -21 -67 -51
-103 -68 -59 -28 -74 -31 -165 -31 -91 0 -106 3 -167 32 -81 38 -152 107 -187
183 -22 47 -26 69 -26 145 0 74 4 98 23 133 25 47 23 53 -8 20z"/>
<path d="M1119 1166 c-1 -28 -1 -218 0 -233 1 -7 8 -13 16 -13 12 0 15 13 15
60 l0 60 38 0 c48 1 72 19 78 62 9 54 -19 80 -89 83 -52 3 -57 1 -58 -19z m99
-21 c6 -2 12 -18 12 -34 0 -30 -14 -41 -56 -41 -22 0 -24 4 -24 44 0 43 1 45
28 40 15 -2 33 -7 40 -9z"/>
<path d="M1363 1178 c-4 -7 -8 -68 -8 -135 l-1 -123 68 0 c54 0 68 3 68 15 0
11 -12 15 -50 15 l-50 0 0 114 c0 108 -8 143 -27 114z"/>
<path d="M1601 1068 c-30 -68 -56 -129 -58 -135 -3 -7 2 -13 12 -13 10 0 23
16 33 40 17 39 18 40 70 40 53 0 54 0 69 -40 11 -27 22 -40 35 -40 10 0 18 2
18 4 0 7 -112 251 -119 259 -4 4 -31 -48 -60 -115z m82 2 l15 -40 -39 0 c-21
0 -39 2 -39 4 0 13 32 76 39 76 4 0 15 -18 24 -40z"/>
<path d="M1855 1058 c0 -114 3 -133 16 -136 14 -2 16 8 17 65 0 142 -9 139 93
30 50 -53 94 -95 98 -93 7 5 5 255 -2 263 -18 17 -27 -18 -27 -105 l-1 -97
-26 30 c-45 52 -161 175 -165 175 -2 0 -3 -60 -3 -132z"/>
<path d="M2202 1181 c-5 -3 -9 -63 -9 -133 l0 -128 72 0 c57 0 72 3 72 15 0
11 -13 15 -54 15 -29 0 -53 5 -54 10 0 6 -1 27 -2 48 l0 37 54 5 c74 7 78 30
5 30 -58 0 -65 6 -58 50 3 25 7 27 45 25 51 -3 67 3 61 19 -5 13 -114 19 -132
7z"/>
<path d="M2410 1169 c0 -14 7 -17 35 -15 27 3 35 0 36 -13 1 -9 1 -62 2 -118
0 -90 2 -103 17 -103 15 0 17 13 17 117 l-1 118 37 -1 c28 0 37 4 37 16 0 14
-14 16 -90 16 -79 0 -90 -2 -90 -17z"/>
</g>
</svg>
